<svg xmlns="http://www.w3.org/2000/svg" viewBox="0 0 128 128">
  <defs>
    <linearGradient id="bg" x1="0%" y1="0%" x2="100%" y2="100%">
      <stop offset="0%" stop-color="#b9ecff" />
      <stop offset="52%" stop-color="#58b8f4" />
      <stop offset="100%" stop-color="#2d5f9e" />
    </linearGradient>
    <linearGradient id="water" x1="0%" y1="0%" x2="0%" y2="100%">
      <stop offset="0%" stop-color="#87d9ff" />
      <stop offset="100%" stop-color="#1f5b92" />
    </linearGradient>
  </defs>
  <circle cx="64" cy="64" r="60" fill="url(#bg)" />
  <circle cx="64" cy="64" r="53" fill="none" stroke="#dff7ff" stroke-width="6" opacity="0.75" />
  <ellipse cx="56" cy="73" rx="28" ry="15" fill="#2b2f33" opacity="0.9" />
  <ellipse cx="56" cy="76" rx="21" ry="10" fill="url(#water)" />
  <path d="M31 81c8 4 42 4 50 0v10c-4 6-12 10-25 10-12 0-20-4-25-10z" fill="#5fbef5" opacity="0.92" />
  <path d="M35 92c2 0 4 2 4 4s-2 4-4 4-4-2-4-4 2-4 4-4zm18 5c2 0 4 2 4 4s-2 4-4 4-4-2-4-4 2-4 4-4zm17-3c2 0 4 2 4 4s-2 4-4 4-4-2-4-4 2-4 4-4z" fill="#eefcff" opacity="0.95" />
  <g transform="translate(66 36) rotate(-19)">
    <ellipse cx="0" cy="0" rx="24" ry="14" fill="#ffffff" />
    <ellipse cx="5" cy="0" rx="11" ry="11" fill="#737373" />
    <ellipse cx="5" cy="0" rx="8" ry="8" fill="#404040" />
    <circle cx="7" cy="-1" r="4" fill="#000000" />
    <circle cx="12" cy="-4" r="2" fill="#ffffff" opacity="0.85" />
  </g>
  <g transform="translate(59 56) rotate(28)">
    <ellipse cx="0" cy="0" rx="26" ry="10" fill="#505050" />
    <ellipse cx="0" cy="0" rx="22" ry="7" fill="#737373" />
    <path d="M-18 0h36M-10 -6v12M0 -7v14M10 -6v12" stroke="#4d4d4d" stroke-width="2" opacity="0.7" />
  </g>
</svg>
